<mxfile host="app.diagrams.net" agent="Mozilla/5.0 (X11; Linux x86_64; rv:127.0) Gecko/20100101 Firefox/127.0" version="26.0.6">
  <diagram name="Page-1" id="Uu_N4zH3Rj2pYzTqdxLv">
    <mxGraphModel dx="2899" dy="1111" grid="1" gridSize="10" guides="1" tooltips="1" connect="1" arrows="1" fold="1" page="1" pageScale="1" pageWidth="850" pageHeight="1100" math="0" shadow="0">
      <root>
        <mxCell id="0" />
        <mxCell id="1" parent="0" />
        <mxCell id="nSGNte2BJ-Q_Rz4o3T1F-4" value="Main peer" style="ellipse;whiteSpace=wrap;html=1;aspect=fixed;" parent="1" vertex="1">
          <mxGeometry x="370" y="360" width="80" height="80" as="geometry" />
        </mxCell>
        <mxCell id="nSGNte2BJ-Q_Rz4o3T1F-8" value="peer" style="ellipse;whiteSpace=wrap;html=1;aspect=fixed;" parent="1" vertex="1">
          <mxGeometry x="200" y="520" width="80" height="80" as="geometry" />
        </mxCell>
        <mxCell id="nSGNte2BJ-Q_Rz4o3T1F-10" value="" style="shape=image;html=1;verticalLabelPosition=bottom;verticalAlign=top;imageAspect=1;aspect=fixed;image=img/clipart/Gear_128x128.png" parent="1" vertex="1">
          <mxGeometry x="190" y="610" width="25.57" height="30" as="geometry" />
        </mxCell>
        <mxCell id="nSGNte2BJ-Q_Rz4o3T1F-11" value="«Node»&lt;br&gt;&lt;b&gt;API Services&lt;br&gt;&lt;/b&gt;" style="html=1;dropTarget=0;whiteSpace=wrap;fillColor=#0050ef;fontColor=#ffffff;strokeColor=#001DBC;" parent="1" vertex="1">
          <mxGeometry x="760" y="310" width="180" height="90" as="geometry" />
        </mxCell>
        <mxCell id="nSGNte2BJ-Q_Rz4o3T1F-12" value="" style="shape=module;jettyWidth=8;jettyHeight=4;" parent="nSGNte2BJ-Q_Rz4o3T1F-11" vertex="1">
          <mxGeometry x="1" width="20" height="20" relative="1" as="geometry">
            <mxPoint x="-27" y="7" as="offset" />
          </mxGeometry>
        </mxCell>
        <mxCell id="nSGNte2BJ-Q_Rz4o3T1F-14" value="«Client»&lt;br&gt;&lt;b&gt;Client Commands&lt;br&gt;&lt;/b&gt;" style="html=1;dropTarget=0;whiteSpace=wrap;fillColor=#0050ef;fontColor=#ffffff;strokeColor=#001DBC;" parent="1" vertex="1">
          <mxGeometry x="760" y="410" width="180" height="90" as="geometry" />
        </mxCell>
        <mxCell id="nSGNte2BJ-Q_Rz4o3T1F-15" value="" style="shape=module;jettyWidth=8;jettyHeight=4;" parent="nSGNte2BJ-Q_Rz4o3T1F-14" vertex="1">
          <mxGeometry x="1" width="20" height="20" relative="1" as="geometry">
            <mxPoint x="-27" y="7" as="offset" />
          </mxGeometry>
        </mxCell>
        <mxCell id="nSGNte2BJ-Q_Rz4o3T1F-16" value="new peer" style="ellipse;whiteSpace=wrap;html=1;aspect=fixed;" parent="1" vertex="1">
          <mxGeometry x="-170" y="420" width="80" height="80" as="geometry" />
        </mxCell>
        <mxCell id="nSGNte2BJ-Q_Rz4o3T1F-17" value="peer" style="ellipse;whiteSpace=wrap;html=1;aspect=fixed;" parent="1" vertex="1">
          <mxGeometry x="375" y="580" width="80" height="80" as="geometry" />
        </mxCell>
        <mxCell id="nSGNte2BJ-Q_Rz4o3T1F-19" value="peer" style="ellipse;whiteSpace=wrap;html=1;aspect=fixed;" parent="1" vertex="1">
          <mxGeometry x="560" y="520" width="80" height="80" as="geometry" />
        </mxCell>
        <mxCell id="nSGNte2BJ-Q_Rz4o3T1F-22" value="Peer" style="shape=umlFrame;whiteSpace=wrap;html=1;pointerEvents=0;" parent="1" vertex="1">
          <mxGeometry x="750" y="270" width="200" height="540" as="geometry" />
        </mxCell>
        <mxCell id="nSGNte2BJ-Q_Rz4o3T1F-23" value="" style="endArrow=block;html=1;endSize=12;startArrow=diamondThin;startSize=14;startFill=1;edgeStyle=orthogonalEdgeStyle;align=left;verticalAlign=bottom;rounded=0;curved=1;endFill=1;exitX=1;exitY=0.5;exitDx=0;exitDy=0;entryX=-0.018;entryY=0.157;entryDx=0;entryDy=0;entryPerimeter=0;" parent="1" source="nSGNte2BJ-Q_Rz4o3T1F-4" target="nSGNte2BJ-Q_Rz4o3T1F-22" edge="1">
          <mxGeometry x="-1" y="3" relative="1" as="geometry">
            <mxPoint x="510" y="400" as="sourcePoint" />
            <mxPoint x="760" y="310" as="targetPoint" />
          </mxGeometry>
        </mxCell>
        <mxCell id="nSGNte2BJ-Q_Rz4o3T1F-24" value="" style="endArrow=block;html=1;endSize=12;startArrow=diamondThin;startSize=14;startFill=1;edgeStyle=orthogonalEdgeStyle;align=left;verticalAlign=bottom;rounded=0;entryX=0;entryY=0.548;entryDx=0;entryDy=0;curved=1;endFill=1;entryPerimeter=0;exitX=1;exitY=0.5;exitDx=0;exitDy=0;" parent="1" source="nSGNte2BJ-Q_Rz4o3T1F-19" target="nSGNte2BJ-Q_Rz4o3T1F-22" edge="1">
          <mxGeometry x="-1" y="3" relative="1" as="geometry">
            <mxPoint x="460" y="410" as="sourcePoint" />
            <mxPoint x="803" y="336" as="targetPoint" />
          </mxGeometry>
        </mxCell>
        <mxCell id="nSGNte2BJ-Q_Rz4o3T1F-25" value="1- broadcasts a connection request" style="html=1;verticalAlign=bottom;endArrow=block;curved=0;rounded=0;exitX=0.975;exitY=0.703;exitDx=0;exitDy=0;exitPerimeter=0;" parent="1" source="nSGNte2BJ-Q_Rz4o3T1F-16" target="nSGNte2BJ-Q_Rz4o3T1F-8" edge="1">
          <mxGeometry width="80" relative="1" as="geometry">
            <mxPoint x="90" y="490" as="sourcePoint" />
            <mxPoint x="170" y="490" as="targetPoint" />
          </mxGeometry>
        </mxCell>
        <mxCell id="nSGNte2BJ-Q_Rz4o3T1F-26" value="2- sends the main peer information to new peer" style="html=1;verticalAlign=bottom;endArrow=block;curved=0;rounded=0;exitX=0;exitY=1;exitDx=0;exitDy=0;entryX=0.5;entryY=1;entryDx=0;entryDy=0;" parent="1" source="nSGNte2BJ-Q_Rz4o3T1F-8" target="nSGNte2BJ-Q_Rz4o3T1F-16" edge="1">
          <mxGeometry width="80" relative="1" as="geometry">
            <mxPoint x="-60" y="540" as="sourcePoint" />
            <mxPoint x="125" y="638" as="targetPoint" />
          </mxGeometry>
        </mxCell>
        <mxCell id="nSGNte2BJ-Q_Rz4o3T1F-27" value="Listens for broadcasts" style="text;html=1;align=center;verticalAlign=middle;whiteSpace=wrap;rounded=0;" parent="1" vertex="1">
          <mxGeometry x="210" y="610" width="70" height="30" as="geometry" />
        </mxCell>
        <mxCell id="nSGNte2BJ-Q_Rz4o3T1F-30" value="3- sends requests and receive requests with main peer with a secure way" style="html=1;verticalAlign=bottom;endArrow=block;curved=0;rounded=0;exitX=1;exitY=0.5;exitDx=0;exitDy=0;entryX=0;entryY=0.5;entryDx=0;entryDy=0;startArrow=classic;startFill=1;" parent="1" source="nSGNte2BJ-Q_Rz4o3T1F-16" target="nSGNte2BJ-Q_Rz4o3T1F-4" edge="1">
          <mxGeometry width="80" relative="1" as="geometry">
            <mxPoint x="292" y="398" as="sourcePoint" />
            <mxPoint x="20" y="300" as="targetPoint" />
          </mxGeometry>
        </mxCell>
        <mxCell id="nSGNte2BJ-Q_Rz4o3T1F-31" value="" style="shape=image;html=1;verticalLabelPosition=bottom;verticalAlign=top;imageAspect=1;aspect=fixed;image=img/clipart/Gear_128x128.png" parent="1" vertex="1">
          <mxGeometry x="365" y="670" width="25.57" height="30" as="geometry" />
        </mxCell>
        <mxCell id="nSGNte2BJ-Q_Rz4o3T1F-32" value="Listens for broadcasts" style="text;html=1;align=center;verticalAlign=middle;whiteSpace=wrap;rounded=0;" parent="1" vertex="1">
          <mxGeometry x="385" y="670" width="70" height="30" as="geometry" />
        </mxCell>
        <mxCell id="nSGNte2BJ-Q_Rz4o3T1F-35" value="" style="shape=image;html=1;verticalLabelPosition=bottom;verticalAlign=top;imageAspect=1;aspect=fixed;image=img/clipart/Gear_128x128.png" parent="1" vertex="1">
          <mxGeometry x="555" y="610" width="25.57" height="30" as="geometry" />
        </mxCell>
        <mxCell id="nSGNte2BJ-Q_Rz4o3T1F-36" value="Listens for broadcasts" style="text;html=1;align=center;verticalAlign=middle;whiteSpace=wrap;rounded=0;" parent="1" vertex="1">
          <mxGeometry x="575" y="610" width="70" height="30" as="geometry" />
        </mxCell>
        <mxCell id="nSGNte2BJ-Q_Rz4o3T1F-37" value="" style="shape=image;html=1;verticalLabelPosition=bottom;verticalAlign=top;imageAspect=1;aspect=fixed;image=img/clipart/Gear_128x128.png" parent="1" vertex="1">
          <mxGeometry x="443.7" y="340" width="25.57" height="30" as="geometry" />
        </mxCell>
        <mxCell id="nSGNte2BJ-Q_Rz4o3T1F-38" value="Listens for broadcasts" style="text;html=1;align=center;verticalAlign=middle;whiteSpace=wrap;rounded=0;" parent="1" vertex="1">
          <mxGeometry x="463.7" y="340" width="70" height="30" as="geometry" />
        </mxCell>
        <mxCell id="nSGNte2BJ-Q_Rz4o3T1F-39" value="" style="shape=image;html=1;verticalLabelPosition=bottom;verticalAlign=top;imageAspect=1;aspect=fixed;image=img/clipart/Gear_128x128.png" parent="1" vertex="1">
          <mxGeometry x="-190" y="510" width="25.57" height="30" as="geometry" />
        </mxCell>
        <mxCell id="nSGNte2BJ-Q_Rz4o3T1F-40" value="Listens for broadcasts" style="text;html=1;align=center;verticalAlign=middle;whiteSpace=wrap;rounded=0;" parent="1" vertex="1">
          <mxGeometry x="-170" y="510" width="70" height="30" as="geometry" />
        </mxCell>
        <mxCell id="nSGNte2BJ-Q_Rz4o3T1F-42" value="bi-directional secure comm" style="html=1;verticalAlign=bottom;endArrow=block;curved=0;rounded=0;exitX=0;exitY=1;exitDx=0;exitDy=0;entryX=1;entryY=0;entryDx=0;entryDy=0;startArrow=classic;startFill=1;" parent="1" source="nSGNte2BJ-Q_Rz4o3T1F-4" target="nSGNte2BJ-Q_Rz4o3T1F-8" edge="1">
          <mxGeometry width="80" relative="1" as="geometry">
            <mxPoint x="-170" y="790" as="sourcePoint" />
            <mxPoint x="290" y="730" as="targetPoint" />
          </mxGeometry>
        </mxCell>
        <mxCell id="nSGNte2BJ-Q_Rz4o3T1F-44" value="bi-directional secure communication" style="html=1;verticalAlign=bottom;endArrow=block;curved=0;rounded=0;exitX=0.5;exitY=1;exitDx=0;exitDy=0;entryX=0.5;entryY=0;entryDx=0;entryDy=0;startArrow=classic;startFill=1;" parent="1" source="nSGNte2BJ-Q_Rz4o3T1F-4" target="nSGNte2BJ-Q_Rz4o3T1F-17" edge="1">
          <mxGeometry width="80" relative="1" as="geometry">
            <mxPoint x="392" y="438" as="sourcePoint" />
            <mxPoint x="258" y="542" as="targetPoint" />
          </mxGeometry>
        </mxCell>
        <mxCell id="nSGNte2BJ-Q_Rz4o3T1F-45" value="bi-directional secure comm" style="html=1;verticalAlign=bottom;endArrow=block;curved=0;rounded=0;exitX=1;exitY=1;exitDx=0;exitDy=0;startArrow=classic;startFill=1;" parent="1" source="nSGNte2BJ-Q_Rz4o3T1F-4" target="nSGNte2BJ-Q_Rz4o3T1F-19" edge="1">
          <mxGeometry width="80" relative="1" as="geometry">
            <mxPoint x="402" y="448" as="sourcePoint" />
            <mxPoint x="268" y="552" as="targetPoint" />
          </mxGeometry>
        </mxCell>
        <mxCell id="nSGNte2BJ-Q_Rz4o3T1F-46" value="«Node-Client»&lt;br&gt;&lt;b&gt;Network Service&lt;br&gt;&lt;/b&gt;" style="html=1;dropTarget=0;whiteSpace=wrap;fillColor=#0050ef;fontColor=#ffffff;strokeColor=#001DBC;" parent="1" vertex="1">
          <mxGeometry x="760" y="510" width="180" height="90" as="geometry" />
        </mxCell>
        <mxCell id="nSGNte2BJ-Q_Rz4o3T1F-47" value="" style="shape=module;jettyWidth=8;jettyHeight=4;" parent="nSGNte2BJ-Q_Rz4o3T1F-46" vertex="1">
          <mxGeometry x="1" width="20" height="20" relative="1" as="geometry">
            <mxPoint x="-27" y="7" as="offset" />
          </mxGeometry>
        </mxCell>
        <mxCell id="nSGNte2BJ-Q_Rz4o3T1F-48" value="«Node-Client»&lt;br&gt;&lt;b&gt;Cryptography Service&lt;br&gt;&lt;/b&gt;" style="html=1;dropTarget=0;whiteSpace=wrap;fillColor=#0050ef;fontColor=#ffffff;strokeColor=#001DBC;" parent="1" vertex="1">
          <mxGeometry x="760" y="610" width="180" height="90" as="geometry" />
        </mxCell>
        <mxCell id="nSGNte2BJ-Q_Rz4o3T1F-49" value="" style="shape=module;jettyWidth=8;jettyHeight=4;" parent="nSGNte2BJ-Q_Rz4o3T1F-48" vertex="1">
          <mxGeometry x="1" width="20" height="20" relative="1" as="geometry">
            <mxPoint x="-27" y="7" as="offset" />
          </mxGeometry>
        </mxCell>
        <mxCell id="nSGNte2BJ-Q_Rz4o3T1F-50" value="«Node»&lt;br&gt;&lt;b&gt;Store Service&lt;br&gt;&lt;/b&gt;" style="html=1;dropTarget=0;whiteSpace=wrap;fillColor=#0050ef;fontColor=#ffffff;strokeColor=#001DBC;" parent="1" vertex="1">
          <mxGeometry x="760" y="710" width="180" height="90" as="geometry" />
        </mxCell>
        <mxCell id="nSGNte2BJ-Q_Rz4o3T1F-51" value="" style="shape=module;jettyWidth=8;jettyHeight=4;" parent="nSGNte2BJ-Q_Rz4o3T1F-50" vertex="1">
          <mxGeometry x="1" width="20" height="20" relative="1" as="geometry">
            <mxPoint x="-27" y="7" as="offset" />
          </mxGeometry>
        </mxCell>
        <mxCell id="70oPDHIPbQGvv8oI3K7Y-18" value="Design diagram of a local peer group communication" style="text;align=center;fontStyle=1;verticalAlign=middle;spacingLeft=3;spacingRight=3;strokeColor=none;rotatable=0;points=[[0,0.5],[1,0.5]];portConstraint=eastwest;html=1;" parent="1" vertex="1">
          <mxGeometry x="-180" y="230" width="360" height="26" as="geometry" />
        </mxCell>
      </root>
    </mxGraphModel>
  </diagram>
</mxfile>
